PathFileType	4	(X/Y/Z)	 s02c0302.trc
DataRate	CameraRate	NumFrames	NumMarkers	Units	OrigDataRate	OrigDataStartFrame	OrigNumFrames
200	200	5	51	mm	200	1001	2000
Frame#	Time	racr			lacr			c7			jug			rlel			rdr			llel			ldr			s2			lic			ric			lasi			rasi			rpsi			lpsi			rgt			lgt			rth1			rth2			rth3			rth4			rlfc			rmfc			rsh1			rsh2			rsh3			rsh4			rlmal			rmmal			rcal			rtoe			rmt5			rmt1			lth1			lth2			lth4			lth3			llfc			lmfc			lsh1			lsh2			lsh3			lsh4			llmal			lmmal			lcal			ltoe			lmt5			SBIKE			LBIKE			RBIKE			
		X1	Y1	Z1	X2	Y2	Z2	X3	Y3	Z3	X4	Y4	Z4	X5	Y5	Z5	X6	Y6	Z6	X7	Y7	Z7	X8	Y8	Z8	X9	Y9	Z9	X10	Y10	Z10	X11	Y11	Z11	X12	Y12	Z12	X13	Y13	Z13	X14	Y14	Z14	X15	Y15	Z15	X16	Y16	Z16	X17	Y17	Z17	X18	Y18	Z18	X19	Y19	Z19	X20	Y20	Z20	X21	Y21	Z21	X22	Y22	Z22	X23	Y23	Z23	X24	Y24	Z24	X25	Y25	Z25	X26	Y26	Z26	X27	Y27	Z27	X28	Y28	Z28	X29	Y29	Z29	X30	Y30	Z30	X31	Y31	Z31	X32	Y32	Z32	X33	Y33	Z33	X34	Y34	Z34	X35	Y35	Z35	X36	Y36	Z36	X37	Y37	Z37	X38	Y38	Z38	X39	Y39	Z39	X40	Y40	Z40	X41	Y41	Z41	X42	Y42	Z42	X43	Y43	Z43	X44	Y44	Z44	X45	Y45	Z45	X46	Y46	Z46	X47	Y47	Z47	X48	Y48	Z48	X49	Y49	Z49	X50	Y50	Z50	X51	Y51	Z51	
1001	5.0050	754.178040	1207.065202	-146.899484	718.336374	1272.640890	-489.255250	737.748052	1277.655829	-322.994476	657.567521	1158.790048	-322.856387	635.727896	1002.331622	-19.358697	735.781068	848.128837	-108.913662	575.071805	1031.643032	-577.970032	758.850191	850.468029	-517.288523	195.835608	1219.568465	-262.158038	312.877810	1218.787194	-420.298936	325.044245	1155.873924	-132.262597	345.681086	1171.443571	-405.655302	361.600115	1117.831451	-167.740394	222.729351	1240.660044	-215.161441	227.375227	1262.327639	-297.248566	262.337300	1076.750317	-114.377948	259.433052	1142.891395	-460.180378	313.914293	989.649962	-107.265591	351.224817	909.587107	-113.699309	349.162972	824.724764	-97.741946	380.662048	914.743424	-136.628246	348.326041	688.123940	-137.114810	331.329398	676.742270	-243.459595	307.218341	589.059638	-117.380111	290.462337	502.949916	-135.050780	238.570150	434.945017	-130.234245	304.091305	500.218491	-172.283866	176.754799	327.965664	-137.895899	194.236004	344.152303	-217.348419	94.956021	334.664212	-181.639554	301.647684	134.494491	-189.477392	212.069380	195.011052	-129.128254	239.501520	190.321454	-235.184702	377.751219	1070.396557	-479.653244	456.947186	1035.693715	-480.979920	478.111363	1060.252636	-462.276515	508.958766	963.533799	-487.674831	588.324625	896.098812	-472.314403	590.761730	862.702079	-361.480557	546.736742	805.287780	-492.046928	507.852951	728.818248	-479.897457	433.710892	677.716608	-487.706809	523.292143	716.775912	-443.755267	346.451880	598.641578	-478.923899	358.370236	590.905006	-401.337233	261.687538	574.668192	-445.741366	518.363723	446.165007	-432.455365	416.449524	467.321368	-501.138758	-126.347481	872.509281	-307.932877	37.123912	86.782493	-514.258464	33.507542	83.564903	-114.287420	
1002	5.0100	755.160385	1208.343278	-149.959179	715.376186	1271.362565	-493.236666	736.881501	1277.573512	-326.498317	656.302646	1158.992252	-324.632098	636.303867	1003.895929	-21.371970	735.782371	848.240122	-109.160584	570.894931	1029.664642	-577.697734	758.749592	850.531483	-517.427747	195.675311	1223.233923	-262.715961	312.963569	1218.995759	-420.762149	324.131908	1159.259298	-132.185563	345.211163	1171.602591	-405.246679	360.593515	1120.425591	-166.991846	222.434301	1244.897222	-215.166618	227.259753	1265.063445	-297.638838	261.552005	1079.841368	-113.217827	258.641104	1142.910455	-459.539360	313.516456	992.483848	-107.349514	352.419342	913.017108	-113.229700	351.696511	828.277039	-97.142943	382.002054	918.730118	-135.911170	352.704062	691.442846	-135.783810	335.760258	679.783503	-242.516252	309.388881	592.392689	-116.818678	290.233024	506.790020	-134.728340	236.065319	440.232652	-130.619837	303.910932	503.890983	-171.934347	171.347642	334.972449	-138.084999	189.486620	351.054411	-217.634980	89.693469	342.752573	-182.151196	293.623918	139.890298	-189.417500	204.763862	201.665231	-129.226507	231.906185	196.079312	-235.684890	376.038920	1068.638530	-480.096265	454.430426	1032.492151	-482.161340	476.332713	1056.626916	-463.472633	505.432965	959.435779	-488.723603	583.270858	890.018381	-474.114614	597.678838	852.182465	-369.103066	542.328504	798.043540	-493.980387	504.908041	720.717308	-480.984235	431.959366	668.091708	-488.514160	520.667812	709.405775	-445.073722	346.054939	588.514879	-478.443505	358.285375	580.703555	-400.838944	261.950350	560.172009	-445.289494	524.882025	444.864369	-433.695287	421.671947	460.694724	-501.913012	-126.432064	872.419827	-308.411189	37.050902	86.654924	-514.224871	33.465647	83.565081	-114.322954	
1003	5.0150	755.994659	1209.766135	-153.053176	712.453076	1270.242449	-497.225181	736.020606	1277.417095	-329.789605	654.931336	1159.365820	-326.386451	637.033992	1005.451180	-23.092462	735.749185	848.390611	-109.567463	566.937925	1027.578195	-577.424890	758.639315	850.600501	-517.567088	195.676565	1225.262164	-262.751481	313.092738	1218.893053	-420.822289	323.430654	1162.667822	-131.999460	344.764857	1171.386834	-404.786564	358.573849	1122.438511	-168.028270	222.050688	1248.849636	-215.456475	227.156647	1267.472997	-298.297992	261.206789	1083.486779	-111.694322	257.996452	1142.849900	-459.165569	313.758630	995.218633	-107.083717	353.991352	916.438233	-112.926300	355.184392	831.953613	-96.116666	383.683357	922.511411	-135.293124	357.650035	694.678397	-134.631446	341.132928	682.768435	-241.463533	312.228390	595.811030	-116.141188	290.601610	510.710441	-134.349910	234.626065	445.801235	-130.316247	304.243518	507.565581	-171.529879	166.559670	342.274518	-138.054185	185.374811	358.127556	-217.620802	85.048332	351.298334	-182.428090	285.879125	145.562110	-189.425957	197.827995	208.368350	-129.351627	225.254959	202.448440	-235.635410	374.432951	1066.528322	-480.586671	451.925742	1028.869600	-483.277487	474.521863	1052.556320	-464.648044	501.490912	954.737754	-489.961880	578.430089	882.800719	-475.949662	581.617038	849.747632	-366.825208	537.555081	789.844488	-495.435440	501.788188	711.856965	-481.706680	430.074232	657.532606	-488.411727	517.662650	701.389812	-445.582034	345.854462	577.659606	-477.734857	358.405271	569.962724	-400.159747	262.733668	545.483938	-443.919599	530.739088	442.597719	-435.244022	426.263410	453.511070	-502.610830	-126.517298	872.303086	-308.777027	36.986139	86.540503	-514.239442	33.342385	83.610688	-114.344554	
1004	5.0200	756.878721	1211.572926	-155.439605	709.626798	1268.904872	-501.248913	735.234820	1277.304140	-332.901336	653.635659	1159.845502	-327.694225	637.803057	1007.002554	-24.746777	735.766076	848.597128	-110.004545	563.109147	1025.462757	-577.169040	758.519535	850.674967	-517.706495	195.864708	1227.270467	-262.652288	313.351314	1218.476177	-420.874583	322.558493	1165.561641	-132.037954	344.348007	1170.812189	-404.305472	357.486833	1124.830827	-167.812368	221.885866	1252.133352	-216.024108	227.081157	1269.541434	-299.195558	260.715491	1086.408901	-110.587366	257.334400	1142.545330	-458.904323	313.980474	997.687412	-108.127090	355.975293	919.938644	-112.746223	358.680449	835.455975	-95.587042	385.717293	926.535808	-134.850180	363.037271	697.856159	-133.415326	347.247924	685.785192	-240.530051	315.609948	599.210697	-115.464367	291.552783	514.670262	-133.752118	233.738337	451.407829	-129.985962	305.113092	511.187762	-170.979594	162.346199	349.923716	-137.708873	181.856411	365.735873	-217.304023	81.066597	360.367340	-182.487438	278.518167	151.338441	-189.263434	191.347573	215.499547	-129.269251	218.588032	209.121084	-235.788352	372.794347	1064.151100	-481.131180	449.427123	1024.839662	-484.381175	472.629307	1047.989163	-465.958105	497.413111	949.673639	-491.082636	572.144745	875.493448	-476.611455	576.573847	842.938561	-368.706552	532.609085	781.148060	-496.770646	498.619584	702.486777	-482.079021	428.240451	646.391046	-488.301788	514.701821	692.962855	-445.819918	345.709535	566.503325	-476.651303	359.325731	558.784336	-399.117142	263.984353	530.617136	-441.114278	536.676372	439.291654	-438.047397	430.238040	445.840922	-503.183323	-126.540315	872.249688	-308.985082	36.938303	86.480622	-514.280054	33.459092	83.511353	-114.210926	
1005	5.0250	757.592406	1213.638890	-157.462598	707.386671	1267.148842	-504.489449	734.559576	1277.180718	-335.738928	652.721760	1160.126954	-328.585621	638.683233	1008.540441	-26.118018	735.768309	848.736397	-110.300821	559.475815	1023.426233	-576.870991	758.390426	850.754767	-517.845921	195.093595	1229.284291	-264.005834	313.646762	1217.701130	-421.216005	321.670446	1168.215196	-132.267627	343.966453	1169.894546	-403.833919	356.747806	1127.054388	-167.391924	222.475897	1254.033729	-217.194977	227.656373	1270.767957	-300.831594	260.381699	1088.991354	-109.557132	256.709398	1142.011934	-458.750297	314.529903	999.976773	-109.284396	358.399579	923.224672	-112.688471	362.471485	838.997385	-95.259054	388.228338	930.500091	-134.351294	368.959124	700.899266	-132.188918	354.009957	688.717658	-239.653841	319.561659	602.564760	-114.644532	293.088692	518.931525	-133.115286	233.319035	457.215395	-129.553768	306.435076	514.990071	-170.391390	158.675168	357.952806	-137.253386	179.098515	373.446470	-216.782691	77.625404	369.796892	-182.427959	271.592212	157.680805	-189.048718	185.376176	223.178607	-129.116080	212.743349	216.339831	-235.655340	371.144972	1061.392109	-481.619851	447.319480	1020.675176	-485.192155	470.705180	1043.271225	-467.113270	493.346131	944.324346	-492.095657	566.483862	867.831105	-477.502986	571.368578	835.461448	-370.761038	527.590217	772.059118	-497.953417	495.543910	692.903297	-482.192944	426.553242	634.999093	-487.704863	511.789981	684.265908	-445.783812	346.382028	554.523354	-474.722646	361.298791	547.367320	-397.528017	265.622426	516.476669	-438.309879	541.964704	434.640299	-440.388315	434.113396	437.646143	-503.568923	-126.538977	872.206167	-309.219762	36.881710	86.380895	-514.319812	32.752278	84.000629	-114.165156	
